<svg xmlns="http://www.w3.org/2000/svg" viewBox="0 0 413.46 357.78"><defs><style>.cls-1{fill:#fff}</style></defs><g id="Ebene_2" data-name="Ebene 2"><g id="Ebene_1-2" data-name="Ebene 1"><path class="cls-1" d="M169.62 190.08l-3.53 11.51c-1.09 3.56-2.6 7.24-2.67 11a11.87 11.87 0 003.11 8.44c2.33 2.46 5.55 3 8.8 3.08 13.71.14 26.61-8.45 36-17.76 2.39-2.38 4.65-4.89 6.82-7.46 1.23-1.46 2.44-2.94 3.65-4.41.44-.53 1.21-1.84 1.75-1.72.72.16 1.79 1.45 2.37 1.92a25.67 25.67 0 008.83 5.05 15.58 15.58 0 009.75-.52 65.61 65.61 0 0020.41-11.83c.56-.49 1.64-1.51 1.64-1.51l4.73-16.29s-2.51 1.39-3.78 2-2.51 1.27-3.81 1.8a16.21 16.21 0 01-4.36 1.45c-2.93.24-1.63-3.38-1.19-4.9.88-3 9.81-33.15 13.42-45.15l5.88-19.57c-6.43 2.29-34.71 13.61-34.71 13.61s-8.9 29.37-13 42.76c-3.21 10.48-8.71 19.59-17.19 26.65-1.47 1.22-11.12 9.14-11.81 4.32-.42-2.91 1.13-6.4 1.95-9.12l16.23-55s-31.15 12.09-34.36 13.35zM126.39 175.37L104 252.17c3.23-1.24 31.65-12.64 32.66-13 1.35-.53 31-102.36 31-102.51.14-.54 22.17-75.16 22.17-75.16l-33.42 13.03s-21.15 75.26-22.49 75.76c-2.82 1.07-28.76 11.5-30.64 12.23.07-.36.08-.51.12-.65.14-.54 22.17-75.16 22.17-75.16l-33.1 12.93L69.63 176l-17.21 6.72-7 24.47c3.45-1.33 9.56-3.73 17.1-6.71L39.69 277.4c3.23-1.24 33.4-13.26 33.4-13.26l22.37-76.58z"></path><path class="cls-1" d="M413.46 172l-70.67-11.8-3.5 17.53s19.25 2.15 19.24 2.16l-41.48 16.33 17.17-91c24.7-9.48 53.62-29.84 55.54-65.28v-2-2.61-1c0-.9-.06-1.81-.12-2.72v-.59a88.87 88.87 0 00-3.8-19.9C382-1.45 375-1.48 370.66 1.91c-47.05 36.38-53.51 75.26-57.49 89.4L293.81 99l-7.08 24.67 19.35-7.48c-1.17 4.17-14.34 51.51-26.38 94.8-100.37 39.51-260.95 102.75-261 102.82-1.12.91-18.66 44-18.66 44L273 235.15l-13.5 48.43 44.84-20 8.77-46.46zM347.37 66.57c7.25-18.72 16.2-40 21-44.33 6.47-5.78 7.67 1.37 7.72 2.1.14 1.81.2 3.56.2 5.27C376 61.6 349.76 77.08 345 79l-3 1.21c2.42-6.71 4.22-10.68 5.37-13.64z"></path></g></g></svg>