<svg xmlns="http://www.w3.org/2000/svg" xmlns:xlink="http://www.w3.org/1999/xlink" version="1.1" id="Ebene_1" x="0px" y="0px" viewBox="0 0 891.89 645.28" style="enable-background:new 0 0 841.89 595.28;" xml:space="preserve">
<style type="text/css">
	.st0{fill:#FF0613;}
</style>
<path class="st0" d="M383.83,308.83c-1.18,3.84-2.35,7.67-3.53,11.51c-1.09,3.56-2.6,7.24-2.67,11.01  c-0.06,3.11,0.96,6.16,3.11,8.44c2.33,2.46,5.55,3.04,8.8,3.08c13.71,0.14,26.61-8.45,35.98-17.76c2.39-2.38,4.65-4.89,6.82-7.46  c1.23-1.46,2.44-2.94,3.65-4.41c0.44-0.53,1.21-1.84,1.75-1.72c0.72,0.16,1.79,1.45,2.37,1.92c2.65,2.13,5.51,4.1,8.83,5.05  c3.29,0.94,6.56,0.63,9.75-0.52c7.37-2.65,14.48-6.72,20.41-11.83c0.56-0.49,1.64-1.51,1.64-1.51l4.73-16.29  c0,0-2.51,1.39-3.78,2.05c-1.25,0.65-2.51,1.27-3.81,1.8c-1.31,0.53-2.93,1.34-4.36,1.45c-2.93,0.24-1.63-3.38-1.19-4.9  c0.88-3.04,9.81-33.15,13.42-45.15c1.96-6.52,3.92-13.04,5.88-19.57c-6.43,2.29-34.71,13.61-34.71,13.61s-8.9,29.37-13,42.76  c-3.21,10.48-8.71,19.59-17.19,26.65c-1.47,1.22-11.12,9.14-11.81,4.32c-0.42-2.91,1.13-6.4,1.95-9.12  c1.02-3.39,16.23-55.04,16.23-55.04s-31.15,12.09-34.36,13.35L383.83,308.83z"/>
<path class="st0" d="M340.6,294.12l-22.43,76.8c3.23-1.24,31.65-12.64,32.66-13.03c1.35-0.53,31.01-102.36,31.05-102.51  c0.14-0.54,22.17-75.16,22.17-75.16l-33.43,13.06c0,0-21.15,75.26-22.49,75.76c-2.82,1.07-28.76,11.5-30.64,12.23  c0.07-0.36,0.08-0.51,0.12-0.65c0.14-0.54,22.17-75.16,22.17-75.16l-33.1,12.93l-22.84,76.39l-17.21,6.72l-7.04,24.47  c3.45-1.33,9.56-3.73,17.1-6.71l-22.79,76.89c3.23-1.24,33.4-13.26,33.4-13.26l22.37-76.58L340.6,294.12z"/>
<path class="st0" d="M627.67,290.79L557,278.95l-3.5,17.53c0,0,19.25,2.15,19.24,2.16c0,0-16.18,6.37-41.48,16.33l17.17-90.97  c0,0,0,0,0,0c24.7-9.48,53.62-29.84,55.54-65.28c0.01,0,0.02,0,0.03,0c0.02-0.32,0.02-0.64,0.03-0.96c0.01-0.32,0.02-0.64,0.03-0.96  c0.02-0.86,0.03-1.73,0.02-2.61c0-0.33-0.01-0.66-0.02-0.99c-0.02-0.9-0.06-1.81-0.12-2.72c-0.01-0.2-0.01-0.39-0.03-0.59  c0,0-0.01,0-0.01,0c-0.43-6.22-1.64-12.84-3.8-19.9c-3.88-12.69-10.85-12.72-15.23-9.33c-47.05,36.38-53.51,75.26-57.49,89.4  c0,0,0,0,0,0.01l-19.36,7.63l-7.08,24.67l19.35-7.48c-1.17,4.17-14.34,51.51-26.38,94.8C393.54,369.2,232.96,432.44,232.87,432.51  c-1.12,0.91-18.66,44.02-18.66,44.02L487.18,353.9c-7.59,27.28-13.47,48.43-13.47,48.43l44.84-20l8.77-46.46L627.67,290.79z   M561.58,185.32c7.25-18.72,16.2-40.04,20.99-44.33c6.47-5.78,7.67,1.37,7.72,2.1c0.14,1.81,0.2,3.56,0.2,5.27  c-0.01,0-0.02,0-0.03,0c-0.25,31.99-26.49,47.47-31.22,49.36c-1.05,0.42-2.05,0.82-3.03,1.21  C558.63,192.25,560.43,188.28,561.58,185.32z"/>
</svg>